<svg xmlns="http://www.w3.org/2000/svg" width="510" height="512" viewBox="0 0 510 512">
  <g id="ambulance_1_" data-name="ambulance (1)" transform="translate(-1)">
    <path id="Path_1" data-name="Path 1" d="M509.662,311.33c-.847-1.876,5.966,8.235-104.5-152.332a15,15,0,0,0-12.357-6.5H376v-15a45,45,0,0,0-90,0v15H66a65.074,65.074,0,0,0-65,65v250a15,15,0,0,0,15,15H73.861a66.937,66.937,0,0,0,110.279,0H312.877a67.191,67.191,0,0,0,111.248,0H496a15,15,0,0,0,15-15v-150A15.077,15.077,0,0,0,509.662,311.33Zm-42.189-8.83H362v-60h64.193ZM316,137.5a15,15,0,0,1,30,0v15H316Zm-250,45H384.913l20.64,30H347a15,15,0,0,0-15,15v90a15,15,0,0,0,15,15H481v60H410.775a67.05,67.05,0,0,0-84.55,0H171.188a66.807,66.807,0,0,0-84.377,0H31v-175a35.04,35.04,0,0,1,35-35Zm-35,270v-30H65.729a66.45,66.45,0,0,0-3.234,30Zm98,29a37,37,0,1,1,37-37A37.042,37.042,0,0,1,129,481.5Zm66.506-29a66.45,66.45,0,0,0-3.234-30H305.05a66.778,66.778,0,0,0-3.339,30ZM368.5,482a37.25,37.25,0,1,1,37.25-37.25A37.292,37.292,0,0,1,368.5,482Zm66.79-29.5a66.777,66.777,0,0,0-3.339-30H481v30Z" fill="#f0f0f2"/>
    <path id="Path_2" data-name="Path 2" d="M226,332.5h60a15,15,0,0,0,15-15v-90a15,15,0,0,0-15-15H226a15,15,0,0,0-15,15v90A15,15,0,0,0,226,332.5Zm15-90h30v60H241Z" fill="#f0f0f2"/>
    <path id="Path_3" data-name="Path 3" d="M91,288.5h16v14a15,15,0,0,0,30,0v-14h14a15,15,0,0,0,0-30H137v-16a15,15,0,0,0-30,0v16H91a15,15,0,0,0,0,30Z" fill="#f0f0f2"/>
    <path id="Path_4" data-name="Path 4" d="M331,61a15,15,0,0,0,15-15V15a15,15,0,0,0-30,0V46A15,15,0,0,0,331,61Z" fill="#f0f0f2"/>
    <path id="Path_5" data-name="Path 5" d="M262.967,74.18A15,15,0,1,0,284.18,52.967l-21.92-21.92A15,15,0,1,0,241.047,52.26Z" fill="#f0f0f2"/>
    <path id="Path_6" data-name="Path 6" d="M399.033,74.18l21.92-21.92A15,15,0,0,0,399.74,31.047l-21.92,21.92A15,15,0,0,0,399.033,74.18Z" fill="#f0f0f2"/>
  </g>
</svg>
