<svg id="Layer_1" enable-background="new 0 0 512 512" height="512" viewBox="0 0 512 512" width="512" xmlns="http://www.w3.org/2000/svg"><g><path d="m512 157.09v276.77c0 27.68-22.52 50.19-50.19 50.19h-411.63c-27.67 0-50.18-22.51-50.18-50.19v-276.77l256-30z" fill="#efefef"/><path d="m512 157.09v276.77c0 27.68-22.52 50.19-50.19 50.19h-205.81v-356.96z" fill="#e5e5e9"/><path d="m512 107.28v49.81h-512v-49.81c0-27.68 22.51-50.19 50.18-50.19h411.63c27.67 0 50.19 22.51 50.19 50.19z" fill="#ff6769"/><path d="m512 107.28v49.81h-256v-100h205.81c27.67 0 50.19 22.51 50.19 50.19z" fill="#ff0c6c"/><g><g fill="#5a5a5a"><path d="m219 27.95c-8.284 0-15 6.716-15 15v58.28c0 8.284 6.716 15 15 15s15-6.716 15-15v-58.28c0-8.284-6.716-15-15-15z"/><path d="m145.022 27.95c-8.284 0-15 6.716-15 15v58.28c0 8.284 6.716 15 15 15s15-6.716 15-15v-58.28c0-8.284-6.715-15-15-15z"/><path d="m71.045 27.95c-8.284 0-15 6.716-15 15v58.28c0 8.284 6.716 15 15 15s15-6.716 15-15v-58.28c0-8.284-6.716-15-15-15z"/></g><path d="m440.955 27.95c-8.284 0-15 6.716-15 15v58.28c0 8.284 6.716 15 15 15s15-6.716 15-15v-58.28c0-8.284-6.716-15-15-15z" fill="#424242"/><path d="m366.978 27.95c-8.284 0-15 6.716-15 15v58.28c0 8.284 6.716 15 15 15s15-6.716 15-15v-58.28c0-8.284-6.716-15-15-15z" fill="#424242"/><path d="m293 27.95c-8.284 0-15 6.716-15 15v58.28c0 8.284 6.716 15 15 15s15-6.716 15-15v-58.28c0-8.284-6.716-15-15-15z" fill="#424242"/></g><path d="m359.2 280.74v59.87c0 5.52-4.48 10-10 10h-53.26v53.27c0 5.52-4.48 10-10 10h-59.87c-5.52 0-10-4.48-10-10v-53.27h-53.28c-5.52 0-10-4.48-10-10v-59.87c0-5.52 4.48-10 10-10h53.28v-53.27c0-5.52 4.48-10 10-10h59.87c5.52 0 10 4.48 10 10v53.27h53.26c5.52 0 10 4.48 10 10z" fill="#ff6769"/><path d="m359.2 280.74v59.87c0 5.52-4.48 10-10 10h-53.26v53.27c0 5.52-4.48 10-10 10h-29.94v-206.41h29.94c5.52 0 10 4.48 10 10v53.27h53.26c5.52 0 10 4.48 10 10z" fill="#ff0c6c"/></g></svg>