<svg xmlns="http://www.w3.org/2000/svg" width="512" height="456.1" viewBox="0 0 512 456.1">
  <g id="calendar" transform="translate(0 -27.95)">
    <path id="Path_1" data-name="Path 1" d="M461.814,57.09h-6.859V42.95a15,15,0,0,0-30,0V57.09H380.977V42.95a15,15,0,0,0-30,0V57.09H307V42.95a15,15,0,0,0-30,0V57.09H235V42.95a15,15,0,0,0-30,0V57.09H161.022V42.95a15,15,0,0,0-30,0V57.09H87.045V42.95a15,15,0,0,0-30,0V57.09H50.186A50.242,50.242,0,0,0,0,107.275V433.864A50.242,50.242,0,0,0,50.186,484.05H461.814A50.243,50.243,0,0,0,512,433.864V107.275A50.242,50.242,0,0,0,461.814,57.09Zm-411.628,30h6.859v14.14a15,15,0,1,0,30,0V87.09h43.978v14.14a15,15,0,1,0,30,0V87.09H205v14.14a15,15,0,0,0,30,0V87.09h42v14.14a15,15,0,1,0,30,0V87.09h43.978v14.14a15,15,0,1,0,30,0V87.09h43.978v14.14a15,15,0,1,0,30,0V87.09h6.859A20.209,20.209,0,0,1,482,107.276V137.09H30V107.276A20.208,20.208,0,0,1,50.186,87.09ZM461.814,454.05H50.186A20.208,20.208,0,0,1,30,433.864V167.09H482V433.864A20.208,20.208,0,0,1,461.814,454.05Z" fill="#f0f0f2"/>
    <path id="Path_2" data-name="Path 2" d="M349.2,265.741H300.937v-48.27a15,15,0,0,0-15-15H226.071a15,15,0,0,0-15,15v48.27H162.8a15,15,0,0,0-15,15v59.867a15,15,0,0,0,15,15h48.274v48.27a15,15,0,0,0,15,15h59.866a15,15,0,0,0,15-15v-48.27H349.2a15,15,0,0,0,15-15V280.741A15,15,0,0,0,349.2,265.741Zm-15,59.866H285.937a15,15,0,0,0-15,15v48.27H241.071v-48.27a15,15,0,0,0-15-15H177.8V295.74h48.274a15,15,0,0,0,15-15V232.47h29.866v48.27a15,15,0,0,0,15,15H334.2Z" fill="#f0f0f2"/>
  </g>
</svg>
