<svg height="512" viewBox="0 0 128 128" width="512" xmlns="http://www.w3.org/2000/svg"><path d="m116.634 8.576h-101.268a8.776 8.776 0 0 0 -8.766 8.765v29.09a8.777 8.777 0 0 0 8.766 8.769h42.12l1.114 1.552a33.75 33.75 0 1 0 14.8 0l1.114-1.552h42.12a8.776 8.776 0 0 0 8.765-8.766v-29.093a8.775 8.775 0 0 0 -8.765-8.765z" fill="#e6e7e8"/><circle cx="62" cy="85.675" fill="#0089ef" r="32.75"/><path d="m70.87 91.9a13.947 13.947 0 0 1 -17.74 0 11.157 11.157 0 0 0 -10.757 11.145v8.848a32.753 32.753 0 0 0 39.254 0v-8.848a11.157 11.157 0 0 0 -10.757-11.145z" fill="#fa759e"/><circle cx="62" cy="81.137" fill="#ffd7e5" r="13.946"/><path d="m62 70.191a13.946 13.946 0 0 1 13.863 12.446 13.947 13.947 0 1 0 -27.726 0 13.946 13.946 0 0 1 13.863-12.446z" fill="#fff"/><path d="m11.366 5.576h101.268a7.765 7.765 0 0 1 7.765 7.765v29.091a7.766 7.766 0 0 1 -7.765 7.765h-42.634l-8 11.181-8-11.178h-42.634a7.765 7.765 0 0 1 -7.766-7.768v-29.091a7.764 7.764 0 0 1 7.766-7.765z" fill="#6dc9f7"/><g fill="#3a2c60"><path d="m84.25 6.575h10.5a1 1 0 0 0 0-2h-10.5a1 1 0 0 0 0 2z"/><path d="m112.634 4.575h-12.967a1 1 0 0 0 0 2h12.967a6.774 6.774 0 0 1 6.765 6.766v29.091a6.772 6.772 0 0 1 -6.765 6.764h-42.634a1 1 0 0 0 -.813.418l-7.187 10.045-7.186-10.045a1 1 0 0 0 -.814-.414h-42.634a6.772 6.772 0 0 1 -6.766-6.768v-29.091a6.774 6.774 0 0 1 6.765-6.766h68.635a1 1 0 0 0 0-2h-68.634a8.776 8.776 0 0 0 -8.766 8.766v29.091a8.774 8.774 0 0 0 8.766 8.768h42.12l1.114 1.557a33.75 33.75 0 1 0 14.794 0l1.12-1.557h42.12a8.774 8.774 0 0 0 8.765-8.764v-29.095a8.776 8.776 0 0 0 -8.765-8.766zm-69.261 106.788v-8.318a10.169 10.169 0 0 1 9.458-10.129 14.853 14.853 0 0 0 18.338 0 10.169 10.169 0 0 1 9.458 10.129v8.318a31.649 31.649 0 0 1 -37.254 0zm18.627-17.279a12.947 12.947 0 1 1 12.946-12.946 12.96 12.96 0 0 1 -12.946 12.946zm31.75-8.409a31.683 31.683 0 0 1 -11.123 24.107v-6.737a12.178 12.178 0 0 0 -9.578-11.878 14.946 14.946 0 1 0 -22.1 0 12.178 12.178 0 0 0 -9.578 11.878v6.737a31.721 31.721 0 0 1 14.5-55.253l5.316 7.431a1 1 0 0 0 1.627 0l5.315-7.431a31.8 31.8 0 0 1 25.621 31.146z"/><path d="m100.667 17.675h-77.334a1 1 0 0 0 0 2h77.334a1 1 0 0 0 0-2z"/><path d="m100.667 27.675h-77.334a1 1 0 0 0 0 2h77.334a1 1 0 0 0 0-2z"/><path d="m100.667 37.675h-77.334a1 1 0 0 0 0 2h77.334a1 1 0 0 0 0-2z"/><path d="m18.884 13.146a.886.886 0 0 0 -.324-.683 1.1 1.1 0 0 0 -1.54.062 6.309 6.309 0 0 0 -1.839 4.522 3.1 3.1 0 0 0 .6 2.049 1.972 1.972 0 0 0 1.59.708 1.929 1.929 0 0 0 1.453-.609 2.117 2.117 0 0 0 .584-1.527 1.935 1.935 0 0 0 -.521-1.391 2.068 2.068 0 0 0 -1.367-.621 4.417 4.417 0 0 1 1.093-1.863.944.944 0 0 0 .271-.647z"/><path d="m13.741 13.146a.885.885 0 0 0 -.323-.683 1.1 1.1 0 0 0 -1.54.062 6.309 6.309 0 0 0 -1.839 4.522 3.1 3.1 0 0 0 .6 2.049 1.972 1.972 0 0 0 1.59.708 1.929 1.929 0 0 0 1.453-.609 2.117 2.117 0 0 0 .584-1.527 1.932 1.932 0 0 0 -.522-1.391 2.068 2.068 0 0 0 -1.367-.621 4.409 4.409 0 0 1 1.094-1.863.943.943 0 0 0 .27-.647z"/><path d="m110.71 39.538a.879.879 0 0 0 .323.682 1.088 1.088 0 0 0 .745.287 1.016 1.016 0 0 0 .77-.348 6.32 6.32 0 0 0 1.863-4.522 3.1 3.1 0 0 0 -.6-2.049 1.972 1.972 0 0 0 -1.59-.708 1.932 1.932 0 0 0 -1.454.609 2.119 2.119 0 0 0 -.583 1.527 1.928 1.928 0 0 0 .522 1.391 2.061 2.061 0 0 0 1.366.621 4.432 4.432 0 0 1 -1.093 1.864.941.941 0 0 0 -.269.646z"/><path d="m105.568 39.538a.875.875 0 0 0 .322.682 1.09 1.09 0 0 0 .745.287 1.018 1.018 0 0 0 .771-.348 6.32 6.32 0 0 0 1.863-4.522 3.1 3.1 0 0 0 -.6-2.049 1.973 1.973 0 0 0 -1.591-.708 1.93 1.93 0 0 0 -1.453.609 2.12 2.12 0 0 0 -.584 1.527 1.928 1.928 0 0 0 .523 1.391 2.059 2.059 0 0 0 1.365.621 4.422 4.422 0 0 1 -1.093 1.864.939.939 0 0 0 -.268.646z"/></g></svg>