<svg xmlns="http://www.w3.org/2000/svg" width="248.94" height="109.501" viewBox="0 0 248.94 109.501">
  <path id="Subtraction_1" data-name="Subtraction 1" d="M255.641,109.5h-8.3V62.233H136.316a45.62,45.62,0,0,1-84.971,0H31.6V109.5H23.3V62.233H19.148A4.154,4.154,0,0,1,15,58.084V33.19a4.154,4.154,0,0,1,4.149-4.149h32.2a45.6,45.6,0,0,1,84.971,0H259.79a4.154,4.154,0,0,1,4.149,4.149V58.084a4.154,4.154,0,0,1-4.149,4.149h-4.149V109.5ZM93.83,8.3a37.341,37.341,0,1,0,37.341,37.341A37.467,37.467,0,0,0,93.83,8.3Zm44.851,29.043a43.871,43.871,0,0,1,0,16.6h116.96v-16.6H138.681Zm-115.384,0v16.6H48.98a43.874,43.874,0,0,1,0-16.6ZM102.128,74.68h-16.6a4.154,4.154,0,0,1-4.149-4.149V58.084H68.936a4.154,4.154,0,0,1-4.149-4.149v-16.6a4.154,4.154,0,0,1,4.149-4.149H81.383V20.743a4.154,4.154,0,0,1,4.149-4.149h16.6a4.154,4.154,0,0,1,4.149,4.149V33.19h12.447a4.154,4.154,0,0,1,4.149,4.149v16.6a4.154,4.154,0,0,1-4.149,4.149H106.277V70.531A4.154,4.154,0,0,1,102.128,74.68ZM73.085,41.488v8.3H85.532a4.154,4.154,0,0,1,4.149,4.149V66.382h8.3V53.935a4.154,4.154,0,0,1,4.149-4.149h12.447v-8.3H102.128a4.154,4.154,0,0,1-4.149-4.149V24.892h-8.3V37.339a4.154,4.154,0,0,1-4.149,4.149Z" transform="translate(-14.999)" fill="#f0f0f2"/>
</svg>
