<svg xmlns="http://www.w3.org/2000/svg" width="934.715" height="520.833" viewBox="0 0 934.715 520.833">
  <g id="Group_15" data-name="Group 15" transform="translate(-36.285 -473.717)">
    <g id="cross" transform="translate(222.95 847.753) rotate(-90)" opacity="0.02">
      <path id="Path_22" data-name="Path 22" d="M271.684,80.72H200.323V9.369A9.367,9.367,0,0,0,190.954,0H90.07A9.369,9.369,0,0,0,80.7,9.369V80.72H9.369A9.375,9.375,0,0,0,0,90.087v100.9a9.384,9.384,0,0,0,9.369,9.369H80.72v71.321a9.384,9.384,0,0,0,9.369,9.369h100.9a9.389,9.389,0,0,0,9.369-9.369V200.316h71.324a9.373,9.373,0,0,0,9.37-9.366V90.066A9.367,9.367,0,0,0,271.684,80.72Zm-9.369,100.864H190.954a9.393,9.393,0,0,0-9.369,9.369v71.361H99.439V190.95a9.382,9.382,0,0,0-9.369-9.369H18.739V99.416H90.09a9.373,9.373,0,0,0,9.369-9.366V18.736h82.165V90.087a9.382,9.382,0,0,0,9.369,9.366h71.324v82.132Z" transform="translate(0 0)" fill="#f0f0f2"/>
    </g>
    <g id="cross-2" data-name="cross" transform="translate(36.285 682.148) rotate(-90)" opacity="0.02">
      <path id="Path_22-2" data-name="Path 22" d="M201.483,59.863H148.561V6.948A6.947,6.947,0,0,0,141.612,0H66.8a6.948,6.948,0,0,0-6.948,6.948V59.863H6.948A6.953,6.953,0,0,0,0,66.809V141.64a6.96,6.96,0,0,0,6.948,6.948H59.863V201.48a6.96,6.96,0,0,0,6.948,6.948H141.64a6.963,6.963,0,0,0,6.948-6.948V148.556h52.895a6.951,6.951,0,0,0,6.948-6.946V66.794A6.946,6.946,0,0,0,201.483,59.863Zm-6.948,74.8H141.612a6.966,6.966,0,0,0-6.948,6.948v52.922H73.745V141.61a6.958,6.958,0,0,0-6.948-6.948H13.9V73.727H66.811a6.951,6.951,0,0,0,6.948-6.946V13.894h60.934V66.809a6.957,6.957,0,0,0,6.948,6.946h52.894v60.909Z" transform="translate(0 0)" fill="#f0f0f2"/>
    </g>
    <g id="cross-3" data-name="cross" transform="translate(689.95 853.753) rotate(-90)" opacity="0.02">
      <path id="Path_22-3" data-name="Path 22" d="M271.684,80.72H200.323V9.369A9.367,9.367,0,0,0,190.954,0H90.07A9.369,9.369,0,0,0,80.7,9.369V80.72H9.369A9.375,9.375,0,0,0,0,90.087v100.9a9.384,9.384,0,0,0,9.369,9.369H80.72v71.321a9.384,9.384,0,0,0,9.369,9.369h100.9a9.389,9.389,0,0,0,9.369-9.369V200.316h71.324a9.373,9.373,0,0,0,9.37-9.366V90.066A9.367,9.367,0,0,0,271.684,80.72Zm-9.369,100.864H190.954a9.393,9.393,0,0,0-9.369,9.369v71.361H99.439V190.95a9.382,9.382,0,0,0-9.369-9.369H18.739V99.416H90.09a9.373,9.373,0,0,0,9.369-9.366V18.736h82.165V90.087a9.382,9.382,0,0,0,9.369,9.366h71.324v82.132Z" transform="translate(0 0)" fill="#f0f0f2"/>
    </g>
    <g id="cross-4" data-name="cross" transform="translate(467.193 994.551) rotate(-90)" opacity="0.02">
      <path id="Path_22-4" data-name="Path 22" d="M271.684,80.72H200.323V9.369A9.367,9.367,0,0,0,190.954,0H90.07A9.369,9.369,0,0,0,80.7,9.369V80.72H9.369A9.375,9.375,0,0,0,0,90.087v100.9a9.384,9.384,0,0,0,9.369,9.369H80.72v71.321a9.384,9.384,0,0,0,9.369,9.369h100.9a9.389,9.389,0,0,0,9.369-9.369V200.316h71.324a9.373,9.373,0,0,0,9.37-9.366V90.066A9.367,9.367,0,0,0,271.684,80.72Zm-9.369,100.864H190.954a9.393,9.393,0,0,0-9.369,9.369v71.361H99.439V190.95a9.382,9.382,0,0,0-9.369-9.369H18.739V99.416H90.09a9.373,9.373,0,0,0,9.369-9.366V18.736h82.165V90.087a9.382,9.382,0,0,0,9.369,9.366h71.324v82.132Z" transform="translate(0)" fill="#f0f0f2"/>
    </g>
    <g id="cross-5" data-name="cross" transform="translate(503.285 688.148) rotate(-90)" opacity="0.02">
      <path id="Path_22-5" data-name="Path 22" d="M201.483,59.863H148.561V6.948A6.947,6.947,0,0,0,141.612,0H66.8a6.948,6.948,0,0,0-6.948,6.948V59.863H6.948A6.953,6.953,0,0,0,0,66.809V141.64a6.96,6.96,0,0,0,6.948,6.948H59.863V201.48a6.96,6.96,0,0,0,6.948,6.948H141.64a6.963,6.963,0,0,0,6.948-6.948V148.556h52.895a6.951,6.951,0,0,0,6.948-6.946V66.794A6.946,6.946,0,0,0,201.483,59.863Zm-6.948,74.8H141.612a6.966,6.966,0,0,0-6.948,6.948v52.922H73.745V141.61a6.958,6.958,0,0,0-6.948-6.948H13.9V73.727H66.811a6.951,6.951,0,0,0,6.948-6.946V13.894h60.934V66.809a6.957,6.957,0,0,0,6.948,6.946h52.894v60.909Z" transform="translate(0 0)" fill="#f0f0f2"/>
    </g>
  </g>
</svg>
