<svg id="timetable" xmlns="http://www.w3.org/2000/svg" width="512" height="512" viewBox="0 0 512 512">
  <path id="Path_1" data-name="Path 1" d="M482,292.25V46a15,15,0,0,0-15-15H391V15a15,15,0,0,0-30,0V31H301V15a15,15,0,0,0-30,0V31H211V15a15,15,0,0,0-30,0V31H121V15a15,15,0,0,0-30,0V31H15A15,15,0,0,0,0,46V437a15,15,0,0,0,15,15H264.8A134.985,134.985,0,0,0,377,512c74.438,0,135-60.562,135-135A134.368,134.368,0,0,0,482,292.25ZM91,61V76a15,15,0,0,0,30,0V61h60V76a15,15,0,0,0,30,0V61h60V76a15,15,0,0,0,30,0V61h60V76a15,15,0,0,0,30,0V61h61v60H30V61ZM30,422V151H452V264.8a134.841,134.841,0,0,0-188.258,38.809A14.911,14.911,0,0,0,257,302H227a15,15,0,0,0,0,30h22.723a133.88,133.88,0,0,0-6.883,30H227a15,15,0,1,0,0,30h15.84a133.666,133.666,0,0,0,6.883,30Zm347,60A105,105,0,1,1,482,377,105.117,105.117,0,0,1,377,482Zm0,0" fill="#f0f0f2"/>
  <path id="Path_2" data-name="Path 2" d="M437,362H392V317a15,15,0,0,0-30,0v60a15,15,0,0,0,15,15h60a15,15,0,0,0,0-30Zm0,0" fill="#f0f0f2"/>
  <path id="Path_3" data-name="Path 3" d="M136,182H106a15,15,0,0,0,0,30h30a15,15,0,0,0,0-30Zm0,0" fill="#f0f0f2"/>
  <path id="Path_4" data-name="Path 4" d="M136,242H106a15,15,0,0,0,0,30h30a15,15,0,0,0,0-30Zm0,0" fill="#f0f0f2"/>
  <path id="Path_5" data-name="Path 5" d="M136,302H106a15,15,0,0,0,0,30h30a15,15,0,0,0,0-30Zm0,0" fill="#f0f0f2"/>
  <path id="Path_6" data-name="Path 6" d="M227,212h30a15,15,0,0,0,0-30H227a15,15,0,0,0,0,30Zm0,0" fill="#f0f0f2"/>
  <path id="Path_7" data-name="Path 7" d="M227,272h30a15,15,0,0,0,0-30H227a15,15,0,0,0,0,30Zm0,0" fill="#f0f0f2"/>
  <path id="Path_8" data-name="Path 8" d="M136,362H106a15,15,0,0,0,0,30h30a15,15,0,0,0,0-30Zm0,0" fill="#f0f0f2"/>
  <path id="Path_9" data-name="Path 9" d="M347,212h30a15,15,0,0,0,0-30H347a15,15,0,0,0,0,30Zm0,0" fill="#f0f0f2"/>
</svg>
